<?xml version="1.0" standalone="no"?>
<!DOCTYPE svg PUBLIC "-//W3C//DTD SVG 20010904//EN"
 "http://www.w3.org/TR/2001/REC-SVG-20010904/DTD/svg10.dtd">
<svg version="1.0" xmlns="http://www.w3.org/2000/svg"
 width="1280.000000pt" height="1005.000000pt" viewBox="0 0 1280.000000 1005.000000"
 preserveAspectRatio="xMidYMid meet">
<g transform="translate(0.000000,1005.000000) scale(0.100000,-0.100000)"
fill="#000000" stroke="none">
<path d="M7509 10046 c-2 -3 -74 -12 -159 -21 -877 -91 -1636 -553 -2123
-1290 -186 -282 -371 -744 -412 -1026 -4 -25 -10 -51 -14 -58 -8 -12 -350 -83
-363 -75 -4 3 -29 37 -54 77 -310 479 -795 840 -1338 996 -248 71 -461 96
-741 88 -367 -11 -677 -90 -1006 -258 -689 -351 -1172 -1038 -1268 -1804 -7
-49 -17 -126 -23 -170 -18 -134 9 -430 59 -655 185 -836 820 -1515 1644 -1760
56 -16 103 -30 105 -30 2 0 4 -63 4 -140 l0 -140 -242 0 c-191 0 -245 3 -257
14 -9 7 -140 59 -291 115 l-275 102 -191 -3 -192 -3 308 -640 c235 -491 311
-641 326 -643 10 -1 62 10 114 26 105 30 91 17 193 181 l37 61 233 -2 232 -3
3 -1492 2 -1493 4140 0 4140 0 0 2470 0 2470 -309 0 c-214 0 -312 3 -317 11
-3 6 17 31 47 56 30 25 102 95 161 155 456 464 732 1046 809 1708 16 144 14
493 -5 643 -82 650 -361 1223 -820 1683 -464 465 -1057 752 -1701 824 -55 6
-133 15 -173 21 -73 9 -275 13 -283 5z m-2304 -4403 c135 -214 301 -413 488
-587 59 -54 104 -103 101 -107 -3 -5 -338 -9 -745 -9 -642 0 -739 2 -739 15 0
8 29 58 64 112 109 167 223 401 267 550 7 27 20 45 32 49 34 11 411 82 438 83
23 1 35 -13 94 -106z m4198 -4671 c220 -124 166 -441 -84 -494 -45 -9 -64 -8
-111 6 -189 55 -261 268 -142 423 77 101 223 129 337 65z"/>
<path d="M12061 4799 l-725 -439 -568 0 -568 0 2 -1092 3 -1093 575 -5 575 -5
715 -434 c393 -238 718 -435 723 -438 4 -2 7 885 7 1971 0 1087 -3 1976 -7
1975 -5 0 -334 -198 -732 -440z"/>
</g>
</svg>
